{
	"asset":{
		"generator":"Khronos glTF Blender I/O v3.6.27",
		"version":"2.0"
	},
	"extensionsUsed":[
		"KHR_materials_specular",
		"KHR_materials_ior"
	],
	"scene":0,
	"scenes":[
		{
			"name":"Scene",
			"nodes":[
				0
			]
		}
	],
	"nodes":[
		{
			"mesh":0,
			"name":"Tab2"
		}
	],
	"materials":[
		{
			"doubleSided":true,
			"extensions":{
				"KHR_materials_specular":{
					"specularColorFactor":[
						2.371357614441398,
						2.371357614441398,
						2.371357614441398
					]
				},
				"KHR_materials_ior":{
					"ior":1.4500000476837158
				}
			},
			"name":"tab_2",
			"pbrMetallicRoughness":{
				"baseColorTexture":{
					"index":0
				},
				"metallicRoughnessTexture":{
					"index":1
				}
			}
		}
	],
	"meshes":[
		{
			"name":"mesh.002",
			"primitives":[
				{
					"attributes":{
						"POSITION":0,
						"NORMAL":1,
						"TEXCOORD_0":2
					},
					"indices":3,
					"material":0
				}
			]
		}
	],
	"textures":[
		{
			"sampler":0,
			"source":0
		},
		{
			"sampler":0,
			"source":1
		}
	],
	"images":[
		{
			"mimeType":"image/png",
			"name":"Color",
			"uri":"Textures/Color.png"
		},
		{
			"mimeType":"image/png",
			"name":"Roughness",
			"uri":"Textures/Roughness.png"
		}
	],
	"accessors":[
		{
			"bufferView":0,
			"componentType":5126,
			"count":2902,
			"max":[
				0.6475826501846313,
				0.2568395435810089,
				0.9619870781898499
			],
			"min":[
				-0.6475826501846313,
				-0.0036208219826221466,
				-0.990186333656311
			],
			"type":"VEC3"
		},
		{
			"bufferView":1,
			"componentType":5126,
			"count":2902,
			"type":"VEC3"
		},
		{
			"bufferView":2,
			"componentType":5126,
			"count":2902,
			"type":"VEC2"
		},
		{
			"bufferView":3,
			"componentType":5123,
			"count":15660,
			"type":"SCALAR"
		}
	],
	"bufferViews":[
		{
			"buffer":0,
			"byteLength":34824,
			"byteOffset":0,
			"target":34962
		},
		{
			"buffer":0,
			"byteLength":34824,
			"byteOffset":34824,
			"target":34962
		},
		{
			"buffer":0,
			"byteLength":23216,
			"byteOffset":69648,
			"target":34962
		},
		{
			"buffer":0,
			"byteLength":31320,
			"byteOffset":92864,
			"target":34963
		}
	],
	"samplers":[
		{
			"magFilter":9729,
			"minFilter":9987
		}
	],
	"buffers":[
		{
			"byteLength":124184,
			"uri":"Can%20Tab.bin"
		}
	]
}
